<?xml version="1.0" standalone="no"?>
<!DOCTYPE svg PUBLIC "-//W3C//DTD SVG 20010904//EN"
 "http://www.w3.org/TR/2001/REC-SVG-20010904/DTD/svg10.dtd">
<svg version="1.0" xmlns="http://www.w3.org/2000/svg"
 width="225.000000pt" height="225.000000pt" viewBox="0 0 225.000000 225.000000"
 preserveAspectRatio="xMidYMid meet">
<metadata>
Created by potrace 1.11, written by Peter Selinger 2001-2013
</metadata>
<g transform="translate(0.000000,225.000000) scale(0.100000,-0.100000)"
fill="#000000" stroke="none">
<path d="M0 1125 l0 -1125 1125 0 1125 0 0 1125 0 1125 -1125 0 -1125 0 0
-1125z m1702 310 c31 -15 67 -39 80 -52 l23 -25 -49 -43 -49 -42 -44 30 c-35
25 -56 32 -107 35 -147 9 -235 -71 -236 -213 0 -71 25 -122 83 -169 34 -27 48
-31 113 -34 45 -3 86 1 104 8 l30 12 0 99 0 99 70 0 70 0 0 -135 0 -135 -32
-20 c-106 -66 -289 -79 -398 -28 -79 36 -125 80 -162 156 -30 60 -33 75 -33
152 1 65 6 96 22 132 67 147 182 211 363 205 79 -3 104 -8 152 -32z m-967
-187 c88 -108 162 -197 165 -197 3 -1 4 89 2 199 l-3 200 76 0 75 0 0 -330 0
-330 -63 0 -63 0 -158 193 c-87 105 -162 194 -167 195 -5 2 -9 -84 -9 -192 l0
-196 -70 0 -70 0 0 330 0 331 62 -3 62 -3 161 -197z"/>
</g>
</svg>
